<svg xmlns="http://www.w3.org/2000/svg" width="20.631" height="24.756" viewBox="0 0 20.631 24.756"><defs><style>.a{fill:#aeaeae;}</style></defs><g transform="translate(-42.657 13.622)"><path class="a" d="M-1157.633-4777.445a2.584,2.584,0,0,1,.052-.516h-7.272a.52.52,0,0,1-.451-.261.519.519,0,0,1,.007-.519l1.772-2.953a8.765,8.765,0,0,0,1.249-4.511v-2.586a7.236,7.236,0,0,1,5.158-6.921v-1.847a2.065,2.065,0,0,1,2.063-2.063,2.065,2.065,0,0,1,2.062,2.063v1.847a7.235,7.235,0,0,1,5.158,6.921v2.586a8.777,8.777,0,0,0,1.249,4.511l1.772,2.953a.513.513,0,0,1,.007.519.518.518,0,0,1-.449.261h-7.271a2.583,2.583,0,0,1,.052.516,2.583,2.583,0,0,1-2.58,2.579A2.581,2.581,0,0,1-1157.633-4777.445Zm1.032,0a1.549,1.549,0,0,0,1.548,1.548,1.549,1.549,0,0,0,1.547-1.548,1.554,1.554,0,0,0-.089-.516h-2.916A1.554,1.554,0,0,0-1156.6-4777.445Zm-4.642-11.346v2.586a9.794,9.794,0,0,1-1.4,5.041l-1.3,2.171h17.777l-1.3-2.171a9.815,9.815,0,0,1-1.395-5.041v-2.586a6.2,6.2,0,0,0-6.189-6.189A6.2,6.2,0,0,0-1161.243-4788.791Zm5.157-8.768v1.62a7.274,7.274,0,0,1,1.032-.074,7.257,7.257,0,0,1,1.031.074v-1.62a1.032,1.032,0,0,0-1.031-1.031A1.032,1.032,0,0,0-1156.086-4797.559Z" transform="translate(1208.027 4786)"/></g></svg>