<svg xmlns="http://www.w3.org/2000/svg" width="22.801" height="22.767" viewBox="0 0 22.801 22.767"><defs><style>.a{fill:#fff;}</style></defs><g transform="translate(-14.003 -14.011)"><path class="a" d="M-12361.41-839.455a2.694,2.694,0,0,1-2.69-2.693v-1.986c0-.878.444-2.057,2.563-2.675l2.606-.72a.454.454,0,0,1,.559.317.456.456,0,0,1-.316.562l-2.6.72c-1.9.552-1.9,1.489-1.9,1.8v1.989a1.783,1.783,0,0,0,1.781,1.778h17.42a1.78,1.78,0,0,0,1.778-1.778v-1.989c0-.832-.639-1.434-1.905-1.8l-2.479-.692a.457.457,0,0,1-.316-.562.456.456,0,0,1,.562-.316l2.482.7c2.123.611,2.569,1.79,2.569,2.675v1.989a2.694,2.694,0,0,1-2.69,2.69Zm2.34-13.185V-855.8a6.424,6.424,0,0,1,6.417-6.417,6.424,6.424,0,0,1,6.417,6.417v3.165a6.424,6.424,0,0,1-6.417,6.417A6.424,6.424,0,0,1-12359.07-852.64Zm.912-3.165v3.165a5.512,5.512,0,0,0,5.5,5.508,5.512,5.512,0,0,0,5.5-5.508V-855.8a5.512,5.512,0,0,0-5.5-5.508A5.512,5.512,0,0,0-12358.158-855.8Z" transform="translate(12378.104 876.233)"/></g></svg>