<svg xmlns="http://www.w3.org/2000/svg" width="32.833" height="32.833" viewBox="0 0 32.833 32.833"><defs><style>.a{fill:#2bc4f3;}.b{fill:#fff;}</style></defs><circle class="a" cx="16.416" cy="16.416" r="16.416"/><path class="b" d="M5.126,14.693a1.712,1.712,0,0,1,.035-.342H.342a.341.341,0,0,1-.294-.517l1.174-1.956A5.806,5.806,0,0,0,2.05,8.89V7.176A4.794,4.794,0,0,1,5.467,2.591V1.367a1.367,1.367,0,1,1,2.733,0V2.591a4.793,4.793,0,0,1,3.417,4.585V8.89a5.814,5.814,0,0,0,.828,2.988l1.174,1.956a.341.341,0,0,1-.293.517H8.509a1.709,1.709,0,1,1-3.384.342Zm.684,0A1.025,1.025,0,1,0,7.8,14.351H5.869A1.03,1.03,0,0,0,5.81,14.693ZM2.734,7.176V8.89a6.489,6.489,0,0,1-.926,3.34L.946,13.668H12.723l-.864-1.439a6.5,6.5,0,0,1-.924-3.34V7.176a4.1,4.1,0,1,0-8.2,0ZM6.15,1.367V2.44a4.8,4.8,0,0,1,1.367,0V1.367a.684.684,0,0,0-1.367,0Z" transform="translate(9.5 7.11)"/></svg>