<svg xmlns="http://www.w3.org/2000/svg" width="26.028" height="26.392" viewBox="0 0 26.028 26.392"><defs><style>.a{fill:#fff;}</style></defs><g transform="translate(-0.229 0)"><path class="a" d="M-12355.659-511.8a.389.389,0,0,1-.289-.127.4.4,0,0,1-.105-.3c0-.037.248-3.525.218-4.525a3.878,3.878,0,0,0-.584-2.5l-.171-.18a5.741,5.741,0,0,1-1.244-1.8,8.357,8.357,0,0,1-3.051.474,18.479,18.479,0,0,1-2.707-.213,16.4,16.4,0,0,0-.3,2.642c.044.668.021,2.907.007,4.544-.007.705-.013,1.292-.01,1.578a.407.407,0,0,1-.115.28.4.4,0,0,1-.282.118h-1.652a.4.4,0,0,1-.295-.134.4.4,0,0,1-.1-.314c.007-.031.4-3.112.4-4.168a10.778,10.778,0,0,0-.969-3.506,9.979,9.979,0,0,1-.521-2.008l-.028-.02a4.474,4.474,0,0,1-1.92-4.143c.025-.584.081-1.124.14-1.652a6.99,6.99,0,0,0-.415-4.193,6.6,6.6,0,0,1-1.066.068,2.035,2.035,0,0,0-1.068.379,2.663,2.663,0,0,1-.851.363.706.706,0,0,1-.14.012c-.879,0-1.8-1.3-1.842-1.363a.828.828,0,0,1-.137-.674,1.951,1.951,0,0,1,1.044-1.112,17.222,17.222,0,0,0,2.845-2.519,3.249,3.249,0,0,1,3.545-.688,2.671,2.671,0,0,1,1.653-.722.4.4,0,0,1,.323.168,1.435,1.435,0,0,1,.165,1.09,2.97,2.97,0,0,1-.08.314c1.232.636,1.636,1.677,2.188,3.1l.053.14c.607,1.562,1.472,3.235,4.089,3.353l.2-.033c1.584-.273,3.553-.612,4.854.292a5.59,5.59,0,0,1,.854.721,3.775,3.775,0,0,1,3.574,1.347c1.224,1.509.575,5.075.068,6.565-.543,1.6.146,2.307.47,2.537a.392.392,0,0,1,.148.425.39.39,0,0,1-.351.289c-.053,0-.112.006-.168.006a3.59,3.59,0,0,1-2.509-1.221,2.922,2.922,0,0,1-.823-2.422c.041-.246.083-.5.122-.749-.2.5-.415.948-.609,1.358l-.236.5a8.11,8.11,0,0,0-.624,4.1,36.235,36.235,0,0,1,.282,4.149.39.39,0,0,1-.392.357Zm-.357-8.168.181.193a4.5,4.5,0,0,1,.788,3c.025.839-.124,3.208-.189,4.183h.776c-.019-.742-.121-2.4-.276-3.618a8.931,8.931,0,0,1,.689-4.528l.239-.512a11.934,11.934,0,0,0,1.258-3.814,4.052,4.052,0,0,0-.909-3.3.33.33,0,0,1-.022-.026,4.593,4.593,0,0,0-.838-.738c-1.038-.717-2.833-.41-4.273-.161-.36.062-.7.118-1.016.161a6.292,6.292,0,0,1-4-.606,6.19,6.19,0,0,1-1.987-2.674l-.174-.587a19.513,19.513,0,0,0-.612-1.887,3.574,3.574,0,0,1-.466.368.369.369,0,0,1-.217.065.4.4,0,0,1-.329-.177.394.394,0,0,1,.111-.544,3.291,3.291,0,0,0,1.336-1.919,1.09,1.09,0,0,0,.021-.289,3.406,3.406,0,0,0-1.357.953,2.511,2.511,0,0,1-.267.245.389.389,0,0,1-.55-.078.4.4,0,0,1,.077-.553.7.7,0,0,0,.058-.05,2.435,2.435,0,0,0-2.312.6,17.947,17.947,0,0,1-3.031,2.671c-.584.335-.659.559-.668.6.351.537.972,1.124,1.218,1.078a2.189,2.189,0,0,0,.59-.273,2.789,2.789,0,0,1,1.493-.481,3.288,3.288,0,0,0,2.476-.776.393.393,0,0,1,.55-.087.39.39,0,0,1,.09.55,2.491,2.491,0,0,1-1.294.854,7.87,7.87,0,0,1,.409,4.459c-.053.509-.112,1.04-.134,1.6a3.716,3.716,0,0,0,1.014,2.967,8.918,8.918,0,0,1-.02-1.293.4.4,0,0,1,.422-.366.4.4,0,0,1,.367.422,11.509,11.509,0,0,0,.627,4.106,11.824,11.824,0,0,1,1.028,3.808c0,.867-.239,2.916-.352,3.826h.811c0-.311.007-.727.01-1.189.016-1.627.037-3.848-.007-4.488a23.588,23.588,0,0,1,.457-3.693c.084-.5.161-.95.205-1.264a.4.4,0,0,1,.444-.335.389.389,0,0,1,.335.444c-.043.32-.121.773-.208,1.286,0,.031-.011.062-.016.093,1.384.215,3.926.386,5.372-.234a8.514,8.514,0,0,1-.244-2.557.37.37,0,0,1,.409-.379.4.4,0,0,1,.379.41,7.375,7.375,0,0,0,.29,2.564.392.392,0,0,1,.028.085A4.822,4.822,0,0,0-12356.017-519.966Zm4.184-1.419a2.174,2.174,0,0,0,.631,1.761,3.093,3.093,0,0,0,1.1.78,3.262,3.262,0,0,1-.019-2.54c.593-1.742.944-4.73.068-5.814a2.807,2.807,0,0,0-2.371-1.092,4.867,4.867,0,0,1,.677,3.195C-12351.372-524.373-12351.53-523.19-12351.833-521.385Zm-13.184-11.817.171.578a5.543,5.543,0,0,0,1.7,2.264,4.094,4.094,0,0,0,1.823.5,5.8,5.8,0,0,1-2.423-3.23l-.053-.143c-.532-1.378-.837-2.163-1.774-2.66a4.212,4.212,0,0,1-.249.385A11.947,11.947,0,0,1-12365.017-533.2Zm-5.578-1.435a.587.587,0,0,1,.587-.59.589.589,0,0,1,.587.59.588.588,0,0,1-.587.587A.586.586,0,0,1-12370.595-534.637Zm.386,0c0,.22.4.22.4,0a.2.2,0,0,0-.2-.2A.2.2,0,0,0-12370.209-534.637Z" transform="translate(12375.001 538.19)"/></g></svg>