<svg xmlns="http://www.w3.org/2000/svg" width="21.594" height="17.692" viewBox="0 0 21.594 17.692"><defs><style>.a{fill:#fff;}</style></defs><g transform="translate(-20.896 -1)"><g transform="translate(20.896 1)"><path class="a" d="M21.39,48.935l-9.7-7.839-.539-.447a.548.548,0,0,0-.7,0l-2.8,2.326v-.983a.549.549,0,0,0-.549-.549H5.005a.549.549,0,0,0-.549.549v3.622L.2,49.085a.549.549,0,0,0,.694.85l1.66-1.354v9.084a.549.549,0,0,0,.549.549H8.967a.549.549,0,0,0,.549-.549V53.409h2.56v4.257a.549.549,0,0,0,.549.549h5.864a.549.549,0,0,0,.549-.549v-9.22L20.7,49.789a.549.549,0,0,0,.69-.854ZM5.554,42.54h.994v1.308l-.994.8V42.54ZM17.94,47.717v9.4H13.174V52.86a.549.549,0,0,0-.549-.549H8.967a.549.549,0,0,0-.549.549v4.257H3.653v-9.4l2.133-1.772s5-4.093,5.027-4.147Z" transform="translate(0.001 -40.522)"/></g></g></svg>