<svg xmlns="http://www.w3.org/2000/svg" width="9.687" height="10.891" viewBox="0 0 9.687 10.891"><defs><style>.a{fill:#707070;}</style></defs><g transform="translate(-26.9)"><g transform="translate(26.9)"><path class="a" d="M36.284,1.567H34.018V1.2A1.2,1.2,0,0,0,32.82,0H30.666a1.2,1.2,0,0,0-1.2,1.2v.369H27.2a.3.3,0,1,0,0,.6h.546v7.1a1.619,1.619,0,0,0,1.617,1.617h4.756a1.619,1.619,0,0,0,1.617-1.617v-7.1h.546a.3.3,0,1,0,0-.6ZM30.073,1.2A.594.594,0,0,1,30.666.6H32.82a.594.594,0,0,1,.593.593v.369H30.073Zm5.06,8.077a1.014,1.014,0,0,1-1.012,1.012H29.365a1.014,1.014,0,0,1-1.012-1.012v-7.1h6.782v7.1Z" transform="translate(-26.9)"/><path class="a" d="M230,151.347a.3.3,0,0,0,.3-.3V145.7a.3.3,0,1,0-.6,0v5.34A.3.3,0,0,0,230,151.347Z" transform="translate(-225.159 -142.144)"/><path class="a" d="M141.9,165.482a.3.3,0,0,0,.3-.3V160.5a.3.3,0,0,0-.6,0v4.678A.3.3,0,0,0,141.9,165.482Z" transform="translate(-139.032 -156.613)"/><path class="a" d="M318.1,165.482a.3.3,0,0,0,.3-.3V160.5a.3.3,0,0,0-.6,0v4.678A.3.3,0,0,0,318.1,165.482Z" transform="translate(-311.286 -156.613)"/></g></g></svg>