<svg xmlns="http://www.w3.org/2000/svg" xmlns:xlink="http://www.w3.org/1999/xlink" width="14.815" height="10.101" viewBox="0 0 14.815 10.101"><defs><style>.a{fill:none;}.b{opacity:0.5;clip-path:url(#a);}.c{fill:#d6d6d6;}</style><clipPath id="a"><rect class="a" width="14.815" height="10.101"/></clipPath></defs><g class="b"><path class="c" d="M20.408-39A7.964,7.964,0,0,0,13-33.949,7.964,7.964,0,0,0,20.408-28.9a7.964,7.964,0,0,0,7.408-5.051A7.964,7.964,0,0,0,20.408-39Zm0,8.418a3.368,3.368,0,0,1-3.367-3.367,3.368,3.368,0,0,1,3.367-3.367,3.368,3.368,0,0,1,3.367,3.367A3.368,3.368,0,0,1,20.408-30.582Zm0-5.387a2.018,2.018,0,0,0-2.02,2.02,2.018,2.018,0,0,0,2.02,2.02,2.018,2.018,0,0,0,2.02-2.02A2.018,2.018,0,0,0,20.408-35.97Z" transform="translate(-13 39)"/></g></svg>