<svg xmlns="http://www.w3.org/2000/svg" width="12.225" height="12.164" viewBox="0 0 12.225 12.164"><defs><style>.a{fill:#707070;}</style></defs><path class="a" d="M-4412.478-613.576A1.524,1.524,0,0,1-4414-615.1v-7.934a1.523,1.523,0,0,1,1.522-1.522h2.7a.3.3,0,0,1,.3.3.3.3,0,0,1-.3.3h-2.7a.914.914,0,0,0-.913.914v7.934a.913.913,0,0,0,.913.913h8.543a.914.914,0,0,0,.914-.913v-2.7a.3.3,0,0,1,.3-.3.3.3,0,0,1,.3.3v2.7a1.525,1.525,0,0,1-1.522,1.522Zm1.861-3.321a.306.306,0,0,1-.079-.3l.714-2.578a.3.3,0,0,1,.079-.134l5.431-5.432a1.37,1.37,0,0,1,1.938,0l.357.358a1.37,1.37,0,0,1,0,1.938l-5.432,5.431a.3.3,0,0,1-.134.079l-2.578.715a.313.313,0,0,1-.081.011A.3.3,0,0,1-4410.617-616.9Zm.652-.652,1.584-.439-1.146-1.145Zm.726-2.159,1.434,1.433,4.445-4.445-1.435-1.433Zm5.2-5.2-.324.322,1.434,1.435.324-.323a.762.762,0,0,0,0-1.077l-.357-.357a.761.761,0,0,0-.539-.223A.759.759,0,0,0-4404.04-624.907Z" transform="translate(4414 625.74)"/></svg>