<svg xmlns="http://www.w3.org/2000/svg" width="25.004" height="21.627" viewBox="0 0 25.004 21.627"><defs><style>.a{fill:#fff;}</style></defs><g transform="translate(-20.499 4.891)"><g transform="translate(6.906 -16.647)"><path class="a" d="M-1856.417,5439.768a.489.489,0,0,1-.489-.489.488.488,0,0,1,.489-.489h2.214v-9.333a1.458,1.458,0,0,1,1.455-1.457h1.115v-.374a1.092,1.092,0,0,1,1.091-1.091h.972v-6.882a1.516,1.516,0,0,1,1.514-1.514h7.016a1.516,1.516,0,0,1,1.514,1.514v6.882h1.014a1.092,1.092,0,0,1,1.091,1.091V5428h1.073a1.458,1.458,0,0,1,1.455,1.457v9.333h2.5a.488.488,0,0,1,.489.489.489.489,0,0,1-.489.489Zm14.911-5.152a1.266,1.266,0,0,1,1.264,1.264v2.911h4.374v-9.333a.48.48,0,0,0-.479-.479h-3.125a.488.488,0,0,1-.487-.489.489.489,0,0,1,.487-.489h1.074v-.374a.113.113,0,0,0-.113-.113h-12.03a.113.113,0,0,0-.113.113V5428h7.276a.489.489,0,0,1,.487.489.488.488,0,0,1-.487.489h-9.369a.48.48,0,0,0-.479.479v9.333h4.661v-2.911a1.265,1.265,0,0,1,1.264-1.264Zm-2.41,4.175h2.7v-2.911a.287.287,0,0,0-.287-.287h-2.41Zm-3.674-2.911v2.911h2.7v-3.2h-2.41A.288.288,0,0,0-1847.589,5435.88Zm-1-16.225v6.882h8.092v-6.882a.539.539,0,0,0-.538-.538h-7.016A.539.539,0,0,0-1848.593,5419.655Zm8.511,13.963a.807.807,0,0,1-.805-.805V5431a.807.807,0,0,1,.805-.806h2.393a.807.807,0,0,1,.806.806v1.808a.807.807,0,0,1-.806.805Zm.171-.976h2.052v-1.466h-2.052Zm-5.689.976a.806.806,0,0,1-.805-.805V5431a.806.806,0,0,1,.805-.806h2.393a.807.807,0,0,1,.806.806v1.808a.807.807,0,0,1-.806.805Zm.171-.976h2.052v-1.466h-2.052Zm-5.689.976a.806.806,0,0,1-.806-.805V5431a.806.806,0,0,1,.806-.806h2.393a.807.807,0,0,1,.805.806v1.808a.807.807,0,0,1-.805.805Zm.171-.976h2.051v-1.466h-2.051Zm9.035-4.151a.489.489,0,0,1,.487-.489h0a.489.489,0,0,1,.489.489.488.488,0,0,1-.489.489A.489.489,0,0,1-1841.913,5428.49Zm-3.453-2.441a.489.489,0,0,1-.489-.489v-1.317h-1.319a.489.489,0,0,1-.487-.489v-1.637a.488.488,0,0,1,.487-.489h1.319v-1.319a.489.489,0,0,1,.489-.489h1.637a.489.489,0,0,1,.489.489v1.319h1.319a.488.488,0,0,1,.487.489v1.637a.489.489,0,0,1-.487.489h-1.319v1.317a.488.488,0,0,1-.489.489Zm-1.319-2.784h1.319a.488.488,0,0,1,.487.489v1.319h.661v-1.319a.489.489,0,0,1,.489-.489h1.319v-.661h-1.319a.489.489,0,0,1-.489-.487V5420.8h-.661v1.319a.488.488,0,0,1-.487.487h-1.319Z" transform="translate(1870.498 -5406.384)"/></g></g></svg>