<svg xmlns="http://www.w3.org/2000/svg" width="43.646" height="28.15" viewBox="0 0 43.646 28.15"><defs><style>.a{fill:#aeaeae;}</style></defs><g transform="translate(0)"><path class="a" d="M42,18.468,31.307,5.593a2,2,0,0,0-1.527-.7,2.094,2.094,0,0,0-1.527.7l-1.41,1.69c-.059.058-.117.175-.176.233a1.919,1.919,0,0,1-1.351.583,1.734,1.734,0,0,1-1.292-.524,1.548,1.548,0,0,1-.294-.35L18.5.932a2.605,2.605,0,0,0-3.994,0L.529,17.769l-.235.291A1.75,1.75,0,0,0,0,18.992a1.7,1.7,0,0,0,1.7,1.69H41.175A1.3,1.3,0,0,0,42.467,19.4a1.164,1.164,0,0,0-.235-.757L42,18.468Z" transform="translate(0 7.468)"/><path class="a" d="M4.424,0A4.392,4.392,0,0,0,0,4.309,4.392,4.392,0,0,0,4.424,8.617,4.392,4.392,0,0,0,8.847,4.309,4.392,4.392,0,0,0,4.424,0Z" transform="translate(34.799)"/></g></svg>