<svg xmlns="http://www.w3.org/2000/svg" width="12.482" height="13.247" viewBox="0 0 12.482 13.247"><defs><style>.a{fill:#8f8f8f;}</style></defs><g transform="translate(-14.77)"><path class="a" d="M27.181,3.585,23.805.078A.255.255,0,0,0,23.624,0H18.593a1.022,1.022,0,0,0-1.021,1.02V4.585H15.534a.765.765,0,0,0-.764.763V9.171a.765.765,0,0,0,.764.763h2.038v2.293a1.021,1.021,0,0,0,1.021,1.019h7.638a1.021,1.021,0,0,0,1.021-1.018V3.762a.255.255,0,0,0-.071-.177Zm-3.5-2.9,2.77,2.879h-2.77ZM15.534,9.426a.255.255,0,0,1-.254-.254V5.349a.255.255,0,0,1,.254-.254h6.879a.255.255,0,0,1,.254.254V9.171a.255.255,0,0,1-.254.254Zm11.209,2.8a.511.511,0,0,1-.511.509H18.593a.511.511,0,0,1-.511-.509V9.935h4.331a.765.765,0,0,0,.764-.763V5.349a.765.765,0,0,0-.764-.763H18.082V1.02a.512.512,0,0,1,.511-.511h4.583V3.821a.255.255,0,0,0,.255.255h3.312Z"/><path class="a" d="M73.62,239.08h-.574a.209.209,0,0,0-.211.211v1.515a.211.211,0,1,0,.422,0v-.382h.321a.686.686,0,0,0,.776-.675v-.005A.657.657,0,0,0,73.62,239.08Zm.307.678a.3.3,0,0,1-.335.291h-.335v-.587h.327c.211,0,.343.1.343.291Z" transform="translate(-56.563 -232.894)"/><path class="a" d="M144.459,239.08h-.538a.209.209,0,0,0-.211.211v1.5a.21.21,0,0,0,.211.211h.538a.962.962,0,0,0,1.021-.961v-.005A.958.958,0,0,0,144.459,239.08Zm.579.966a.547.547,0,0,1-.579.573h-.328v-1.158h.327a.552.552,0,0,1,.579.579Z" transform="translate(-125.604 -232.894)"/><path class="a" d="M227.942,239.08h-1.076a.209.209,0,0,0-.211.211v1.515a.211.211,0,1,0,.423,0v-.549h.741a.192.192,0,1,0,0-.384h-.741v-.409h.865a.192.192,0,0,0,0-.384Z" transform="translate(-206.403 -232.894)"/></g></svg>