<svg xmlns="http://www.w3.org/2000/svg" width="21.964" height="19.258" viewBox="0 0 21.964 19.258"><defs><style>.a{fill:#fff;}</style></defs><g transform="translate(0 -26.101)"><path class="a" d="M21.919,43.867l-.871-3.027a.451.451,0,0,0-.1-.166A5.08,5.08,0,0,0,17.4,37.337l-.249-.041a1.039,1.039,0,0,0-1.057.332,3.937,3.937,0,0,1-3.3,1.119,3.937,3.937,0,0,1-3.3-1.119A1.039,1.039,0,0,0,8.445,37.3l-.249.062a5.143,5.143,0,0,0-3.027,2.218H2.557c-.021,0-.021,0-.041-.021,0-.021-.021-.041-.021-.083l.539-1.928c.477-1.513,1.389-1.969,3.172-2.425a.4.4,0,0,0,.187-.1,2.354,2.354,0,0,0,.477.311.308.308,0,0,0,.187.041.437.437,0,0,0,.373-.228.415.415,0,0,0-.187-.56A3.864,3.864,0,0,1,5.6,31.221a2.353,2.353,0,0,1,2.343-2.343,2.633,2.633,0,0,1,.7.1,4.74,4.74,0,0,0-.352,1.8c0,3.545,2.135,6.53,4.664,6.53,2.488,0,4.685-3.047,4.685-6.53a4.677,4.677,0,0,0-8.6-2.55,3.307,3.307,0,0,0-1.1-.187,3.171,3.171,0,0,0-2.674,1.493.434.434,0,0,0-.124-.083,1.985,1.985,0,0,0-.974-.228A2.058,2.058,0,0,0,2.081,31.3a3.569,3.569,0,0,0,.477,1.783,2.668,2.668,0,0,0-2.2,1.886l-.332,1.2a.686.686,0,0,0,.1.6.7.7,0,0,0,.58.29h1.6c-.021.083-.062.166-.083.249l-.539,1.949a.844.844,0,0,0,.166.788.846.846,0,0,0,.7.352h2.2a3.573,3.573,0,0,0-.145.435l-.871,3.047A1.189,1.189,0,0,0,3.946,44.9a1.159,1.159,0,0,0,.912.456H20.8a1.129,1.129,0,0,0,.912-.456A1.155,1.155,0,0,0,21.919,43.867ZM9.543,29.045a.286.286,0,0,0,.062-.083c.021-.021.021-.062.041-.083a3.785,3.785,0,0,1,3.317-1.949,3.865,3.865,0,0,1,3.669,2.695,1.952,1.952,0,0,1-1.949-.767.406.406,0,0,0-.58-.083.35.35,0,0,0-.145.207c-.021.021-.021.041-.041.062-.58,1.182-2.529,1.679-4.747,1.244A4.314,4.314,0,0,1,9.543,29.045ZM10.7,31.263a4.476,4.476,0,0,0,3.731-1.493,2.771,2.771,0,0,0,1.845.7,2.214,2.214,0,0,0,.518-.062,2.011,2.011,0,0,1,.021.352c0,3.047-1.8,5.722-3.856,5.722-1.969,0-3.69-2.467-3.835-5.369A8.407,8.407,0,0,0,10.7,31.263ZM.878,36.238l.29-1.037c.249-.85.767-1.1,1.8-1.347a.417.417,0,0,0,.166-.083,1.625,1.625,0,0,0,.311.207.308.308,0,0,0,.187.041.437.437,0,0,0,.373-.228.427.427,0,0,0-.166-.56A2.244,2.244,0,0,1,2.91,31.3,1.256,1.256,0,0,1,4.174,30.04a1.174,1.174,0,0,1,.6.145.488.488,0,0,0,.166.041,3.13,3.13,0,0,0-.166,1,5.3,5.3,0,0,0,1.016,3.151,4.579,4.579,0,0,0-3.068,1.866H.878Zm20.191,8.168a.365.365,0,0,1-.269.124H4.858a.365.365,0,0,1-.269-.124.377.377,0,0,1-.062-.29L5.4,41.089A4.235,4.235,0,0,1,8.4,38.166l.249-.062a.265.265,0,0,1,.228.083A4.663,4.663,0,0,0,12.8,39.6a4.663,4.663,0,0,0,3.918-1.41.267.267,0,0,1,.249-.083l.249.062a4.272,4.272,0,0,1,3.006,2.923l.373,1.285a.334.334,0,0,0,.083.145l.456,1.576A.409.409,0,0,1,21.069,44.406Z" transform="translate(0 0)"/></g></svg>