<svg xmlns="http://www.w3.org/2000/svg" width="9.659" height="9.659" viewBox="0 0 9.659 9.659"><defs><style>.a{fill:#1f6cbc;}</style></defs><path class="a" d="M18.449,9H9.21A.21.21,0,0,0,9,9.21v1.68a.21.21,0,0,0,.21.21H9.94l2.839,4.056v3.294a.21.21,0,0,0,.13.194.207.207,0,0,0,.08.016.21.21,0,0,0,.148-.062l1.68-1.68a.209.209,0,0,0,.062-.148V15.156L17.719,11.1h.731a.21.21,0,0,0,.21-.21V9.21A.21.21,0,0,0,18.449,9Zm-.21,1.68h-3.15a.21.21,0,0,0,0,.42h2.116L14.5,14.969a.209.209,0,0,0-.038.12v1.593l-1.26,1.26V15.089a.209.209,0,0,0-.038-.12L10.453,11.1H12.57a.21.21,0,0,0,0-.42H9.42V9.42h8.819Z" transform="translate(-9 -9)"/></svg>