<svg xmlns="http://www.w3.org/2000/svg" width="18.32" height="23.149" viewBox="0 0 18.32 23.149"><defs><style>.a{fill:#fff;}</style></defs><g transform="translate(8.617 2.02)"><path class="a" d="M-12386.266-354.089a1.355,1.355,0,0,1-1.352-1.352v-4.147a.338.338,0,0,1,.339-.339.338.338,0,0,1,.339.339v4.147a.673.673,0,0,0,.674.672h15.616a.674.674,0,0,0,.675-.672V-374.8a.674.674,0,0,0-.675-.672h-.8v19.061a.34.34,0,0,1-.339.339h-13.337a.34.34,0,0,1-.339-.339v-19.061h-.8a.673.673,0,0,0-.674.672v13.614a.34.34,0,0,1-.339.339.34.34,0,0,1-.339-.339V-374.8a1.352,1.352,0,0,1,1.352-1.349h2.892v-.016a1.074,1.074,0,0,1,1.069-1.073h7.694a1.073,1.073,0,0,1,1.07,1.073v1.461a1.073,1.073,0,0,1-1.07,1.073h-1.6a1.9,1.9,0,0,1-1.865,1.558h-.756a1.9,1.9,0,0,1-1.865-1.558h-1.6a1.074,1.074,0,0,1-1.069-1.073v-.768h-1.411v18.722h12.656v-18.722h-.208a.34.34,0,0,1-.339-.339.338.338,0,0,1,.339-.339h1.688a1.353,1.353,0,0,1,1.353,1.349v19.359a1.356,1.356,0,0,1-1.353,1.352Zm3.569-22.076v1.461a.4.4,0,0,0,.392.395h1.912a.34.34,0,0,1,.339.339,1.22,1.22,0,0,0,1.219,1.219h.756a1.221,1.221,0,0,0,1.219-1.219.34.34,0,0,1,.339-.339h1.911a.393.393,0,0,0,.393-.395v-1.461a.393.393,0,0,0-.393-.395h-7.694A.4.4,0,0,0-12382.7-376.165Zm-.077,17.463a.337.337,0,0,1-.339-.339.337.337,0,0,1,.339-.339h8.636a.34.34,0,0,1,.339.339.34.34,0,0,1-.339.339Zm0-2.988a.337.337,0,0,1-.339-.339.337.337,0,0,1,.339-.339h8.636a.34.34,0,0,1,.339.339.34.34,0,0,1-.339.339Zm3.547-3.224-1.312-3.815-.712,1.275a.346.346,0,0,1-.3.174h-1.225a.337.337,0,0,1-.339-.339.335.335,0,0,1,.339-.339h1.025l.988-1.763a.341.341,0,0,1,.619.056l1.188,3.454,1.231-4.844a.339.339,0,0,1,.646-.034l1.144,3.128h1.794a.34.34,0,0,1,.339.342.34.34,0,0,1-.339.339h-2.03a.335.335,0,0,1-.316-.224l-.853-2.322-1.24,4.884a.331.331,0,0,1-.328.256A.334.334,0,0,1-12379.227-364.914Z" transform="translate(12379 375.217)"/></g></svg>