<svg xmlns="http://www.w3.org/2000/svg" width="17.115" height="20.538" viewBox="0 0 17.115 20.538"><defs><style>.a{fill:#fff;}</style></defs><g transform="translate(-40.63 25.622)"><path class="a" d="M6.418,18.4a2.144,2.144,0,0,1,.043-.428H.429a.427.427,0,0,1-.368-.647l1.47-2.45a7.271,7.271,0,0,0,1.036-3.742V8.986A6,6,0,0,1,6.846,3.244V1.712a1.711,1.711,0,1,1,3.423,0V3.244a6,6,0,0,1,4.279,5.742v2.146a7.28,7.28,0,0,0,1.036,3.742l1.47,2.45a.427.427,0,0,1-.367.647H10.655a2.14,2.14,0,1,1-4.237.428Zm.856,0a1.284,1.284,0,1,0,2.493-.428H7.349A1.289,1.289,0,0,0,7.275,18.4ZM3.423,8.986v2.146a8.126,8.126,0,0,1-1.159,4.182l-1.08,1.8H15.932l-1.082-1.8a8.143,8.143,0,0,1-1.157-4.182V8.986a5.134,5.134,0,1,0-10.269,0ZM7.7,1.712V3.056a6.008,6.008,0,0,1,1.712,0V1.712a.856.856,0,0,0-1.712,0Z" transform="translate(40.63 -25.622)"/></g></svg>