<svg xmlns="http://www.w3.org/2000/svg" width="17.504" height="22.784" viewBox="0 0 17.504 22.784"><defs><style>.a{fill:#fff;}</style></defs><g transform="translate(-23.192 -2.264)"><g transform="translate(-3.828 -6.805)"><path class="a" d="M-1831.4,5308.7V5306a3,3,0,0,0-.947-1.976v3.6h-10.144v-3.6a3,3,0,0,0-.947,1.976v2.7h-1.116V5306c0-2.325,2.57-4.146,4.507-4.934a7.06,7.06,0,0,1-3.635-6.507c0-.285.015-.566.041-.845h-2.53v-1.135h2.421v-.233a6.391,6.391,0,0,1,6.331-6.435,6.391,6.391,0,0,1,6.331,6.435v.233h2.421v1.135h-2.53c.027.278.041.56.041.845a7.06,7.06,0,0,1-3.635,6.507c1.937.788,4.507,2.609,4.507,4.934v2.7Zm-9.987-5.616h.012v3.405h7.911v-3.413a9.351,9.351,0,0,0-1.631-.914l-2.285,3.74-2.361-3.742A9.44,9.44,0,0,0-1841.387,5303.08Zm3.993.691,1.379-2.258a6,6,0,0,1-1.4.167,6.037,6.037,0,0,1-1.4-.165Zm-.025-3.227a4.747,4.747,0,0,0,3.359-1.38l-.18.035a11.45,11.45,0,0,1-1.856.2,2.259,2.259,0,0,1-1.035-.183,1.821,1.821,0,0,1-.288-.187,1.82,1.82,0,0,1-.288.187,2.26,2.26,0,0,1-1.035.183,11.446,11.446,0,0,1-1.856-.2l-.18-.035A4.747,4.747,0,0,0-1837.42,5300.544Zm1.891-4.531a6.259,6.259,0,0,1,1.689,2.386l.162.348a6.534,6.534,0,0,0,1.4-4.187,7.674,7.674,0,0,0-.048-.845h-1.663a.721.721,0,0,1,.231.549.6.6,0,0,1-.517.66.6.6,0,0,1-.518-.66.72.72,0,0,1,.231-.549h-5.613a.72.72,0,0,1,.231.549.6.6,0,0,1-.518.66.6.6,0,0,1-.518-.66.721.721,0,0,1,.232-.549h-1.774a8.021,8.021,0,0,0-.047.845,6.534,6.534,0,0,0,1.4,4.188l.161-.348a6.273,6.273,0,0,1,1.689-2.386,1.75,1.75,0,0,1,.8-.2,1.75,1.75,0,0,1,1.09.381,1.75,1.75,0,0,1,1.09-.381A1.747,1.747,0,0,1-1835.529,5296.013Zm-1.376,1.292-.141.313.131.278a.654.654,0,0,0,.29.305,1.4,1.4,0,0,0,.529.059,7.712,7.712,0,0,0,.9-.062,3.992,3.992,0,0,0-.837-1.174.65.65,0,0,0-.294-.072A.649.649,0,0,0-1836.905,5297.306Zm-1.9-.281a4.059,4.059,0,0,0-.837,1.174,7.714,7.714,0,0,0,.9.063,1.4,1.4,0,0,0,.529-.059.654.654,0,0,0,.291-.305l.13-.278-.141-.314a.647.647,0,0,0-.576-.352A.647.647,0,0,0-1838.8,5297.024Zm-3.83-4.678v.233h10.429v-.233a5.263,5.263,0,0,0-5.215-5.3A5.264,5.264,0,0,0-1842.634,5292.347Z" transform="translate(1873.192 -5276.842)"/></g></g></svg>