<svg xmlns="http://www.w3.org/2000/svg" width="18.7" height="20.147" viewBox="0 0 18.7 20.147"><defs><style>.a{fill:#1f6cbc;}</style></defs><g transform="translate(-17.6)"><g transform="translate(17.6 0)"><g transform="translate(0 0)"><path class="a" d="M133.941,134.095l.008-.008a.314.314,0,0,0,.033-.045s0-.008.008-.012.021-.033.029-.049a.014.014,0,0,1,0-.008c.008-.016.016-.033.025-.053,0,0,0,0,0-.008s.012-.037.021-.058c0,0,0-.008,0-.008a.289.289,0,0,0,.012-.058.037.037,0,0,1,0-.021c0-.016,0-.033.008-.049a.6.6,0,0,0,0-.14.207.207,0,0,0-.008-.049.037.037,0,0,0,0-.021c0-.021-.008-.037-.012-.058,0,0,0-.008,0-.008a.321.321,0,0,0-.021-.058s0,0,0-.008-.016-.037-.025-.053a.014.014,0,0,0,0-.008.307.307,0,0,0-.029-.049s0-.008-.008-.012a.434.434,0,0,0-.033-.045l-.008-.008a.583.583,0,0,0-.049-.053l-4.067-4.063a.707.707,0,0,0-1,1l2.862,2.862H120.307a.705.705,0,1,0,0,1.411h11.384l-2.842,2.842a.705.705,0,1,0,1,1l4.043-4.043C133.908,134.128,133.924,134.111,133.941,134.095Z" transform="translate(-115.405 -123.575)"/><path class="a" d="M21.429,1.411h5.264a.705.705,0,1,0,0-1.411H21.429A3.835,3.835,0,0,0,17.6,3.829v12.49a3.835,3.835,0,0,0,3.829,3.829h5.178a.705.705,0,1,0,0-1.411H21.429a2.422,2.422,0,0,1-2.418-2.418V3.829A2.422,2.422,0,0,1,21.429,1.411Z" transform="translate(-17.6 0)"/></g></g></g></svg>